<svg width="328" height="339" viewBox="0 0 328 339" fill="none" xmlns="http://www.w3.org/2000/svg">
    <path d="M9.71001 144.33C7.20611 144.33 4.7295 143.264 2.9991 141.197C-0.0985978 137.494 0.381898 131.975 4.0929 128.869C26.3629 110.205 50.1279 89.1192 73.1129 68.7212C87.7849 55.7012 102.468 42.6622 116.941 30.0882C119.96 27.4632 122.734 25.014 125.296 22.7484C157.749 -5.93559 165.038 -7.87659 204.823 25.0843C230.749 46.5643 261.19 72.1313 290.425 98.9593C294.879 103.053 299.421 106.92 303.909 110.744C310.859 116.666 318.042 122.791 324.55 129.443C327.929 132.9 327.867 138.439 324.418 141.826C320.953 145.205 315.421 145.143 312.035 141.694C306.078 135.604 299.504 130.002 292.539 124.06C287.894 120.096 283.195 116.088 278.582 111.853C249.637 85.2985 219.406 59.8965 193.644 38.5645C162.785 12.9985 162.773 12.9785 136.867 35.8614C134.269 38.1622 131.46 40.6387 128.398 43.2989C113.976 55.8299 99.3318 68.8219 84.6988 81.7989C61.6248 102.276 37.7648 123.447 15.3118 142.272C13.6829 143.655 11.6868 144.331 9.71019 144.331L9.71001 144.33Z" fill="white" />
    <path d="M159.71 338.59C110.554 338.59 59.56 329.184 45.38 303.399C19.017 255.43 41.6964 104.749 42.6769 98.359C43.4035 93.5817 47.9191 90.3434 52.6535 91.0348C57.4308 91.7614 60.7121 96.234 59.9777 101.011C50.7121 161.57 43.2547 263.191 60.7199 294.971C79.5599 329.244 213.56 325.315 246.97 308.229C265.302 298.851 270.107 276.264 270.911 258.975C272.626 222.014 272.45 192.483 272.216 155.095C272.118 139.88 272.024 123.263 272.032 104.189C272.032 99.3613 275.954 95.4394 280.782 95.4394C285.61 95.4394 289.532 99.3613 289.532 104.189C289.524 123.228 289.63 139.802 289.716 154.982C289.942 192.634 290.126 222.365 288.395 259.792C287.372 281.71 280.739 310.62 254.942 323.815C238.071 332.421 199.493 338.588 159.704 338.588L159.71 338.59Z" fill="white" />
    <path d="M164.48 201.03L162.66 200.995C151.906 200.565 136.566 196.288 128.035 188.964C120.851 182.776 112.058 174.132 107.859 161.987C101.656 144.034 104.105 125.901 114.773 110.94C126.429 94.5688 146.246 84.4008 166.476 84.4008C184.851 84.4008 200.996 92.7406 211.933 107.87C224.394 125.124 226.144 150.421 216.081 168.018C206.698 184.44 187.101 201.03 164.479 201.03L164.48 201.03ZM166.484 101.893C152.039 101.893 137.328 109.428 129.035 121.081C123.883 128.315 118.894 140.296 124.414 156.265C127.242 164.445 133.933 170.949 139.457 175.691C144.383 179.925 156.019 183.214 163.371 183.515L164.492 183.531C180.008 183.531 194.242 170.976 200.91 159.32C207.621 147.586 206.273 129.867 197.777 118.109C188.07 104.711 175.41 101.894 166.484 101.894L166.484 101.893Z" fill="white" />
</svg>
    