<svg width="470" height="434" viewBox="0 0 470 434" fill="none" xmlns="http://www.w3.org/2000/svg">
    <path d="M358.7 45.19C346.997 37.0689 332.38 55.944 343.302 65.799C396.224 113.006 463.252 201.369 434.415 278.599C420.638 315.892 382.95 348.204 352.599 371.052C329.212 388.962 301.544 400.431 272.349 404.318C273.302 356.998 270.783 259.278 266.076 213.918C265.966 207 260.498 201.359 253.592 201.035C179.487 198.347 105.392 197.281 31.3216 197.844C30.7982 197.812 30.2747 197.812 29.7552 197.844C43.9072 151.821 70.3332 110.528 106.193 78.3936C177.873 14.8346 282.083 3.40958 366.873 44.7916C377.682 50.0572 387.146 33.5926 376.338 27.9906C293.01 -13.1694 191.538 -8.85742 114.368 45.6856C44.595 95.3066 -5.81197 184.966 0.858026 274.056C9.20183 380.456 107.988 421.226 198.428 430.516C248.436 435.613 297.436 436.394 342.858 411.418V411.421C383.624 388.366 418.807 356.605 445.898 318.401C508.675 228.186 436.605 98.3815 358.707 45.1815L358.7 45.19ZM234.49 406.28C154.689 403.815 44.09 387.296 24.15 290.19C19.4938 265.987 19.7594 241.096 24.9352 216.999C26.6774 218.538 28.9391 219.358 31.2633 219.296C101.486 220.116 171.653 222.561 241.763 226.632C243.834 276.081 240.474 362.372 248.373 406.562C243.779 406.39 239.185 406.448 234.482 406.281L234.49 406.28Z" fill="white" />
</svg>
    